<?xml version="1.0" standalone="no"?>
<!DOCTYPE svg PUBLIC "-//W3C//DTD SVG 20010904//EN"
 "http://www.w3.org/TR/2001/REC-SVG-20010904/DTD/svg10.dtd">
<svg version="1.0" xmlns="http://www.w3.org/2000/svg"
 width="640.000000pt" height="640.000000pt" viewBox="0 0 640.000000 640.000000"
 preserveAspectRatio="xMidYMid meet">
<metadata>
Created by potrace 1.11, written by Peter Selinger 2001-2013
</metadata>
<g transform="translate(0.000000,640.000000) scale(0.100000,-0.100000)"
fill="#000000" stroke="none">
<path d="M5910 6354 c-223 -53 -513 -121 -595 -139 -76 -17 -333 -74 -360 -79
-11 -2 -112 -25 -225 -50 -113 -25 -216 -47 -230 -50 -14 -2 -63 -13 -110 -24
-85 -20 -164 -38 -207 -47 -13 -3 -31 -7 -41 -9 -9 -2 -71 -16 -137 -30 -66
-15 -131 -29 -145 -32 -14 -3 -27 -6 -30 -6 -3 -1 -21 -5 -40 -10 -58 -14
-223 -50 -250 -55 -14 -2 -50 -10 -80 -18 -30 -8 -149 -34 -265 -60 -115 -25
-237 -52 -270 -60 -33 -8 -71 -16 -85 -19 -14 -3 -68 -14 -120 -26 -52 -12
-103 -23 -113 -25 -10 -2 -26 -6 -35 -9 -9 -3 -28 -7 -42 -10 -95 -17 -297
-69 -328 -85 -78 -40 -134 -117 -148 -202 -4 -24 -7 -920 -7 -1991 -1 -1072
-2 -1948 -4 -1948 -1 0 -26 11 -55 24 -200 91 -476 106 -748 41 -3 -1 -21 -5
-40 -9 -57 -12 -215 -73 -293 -112 -381 -191 -623 -509 -604 -794 13 -196 127
-348 332 -441 36 -16 73 -29 83 -29 10 0 22 -4 27 -8 23 -21 167 -37 315 -36
116 1 180 7 255 23 55 12 105 23 110 24 6 2 30 9 54 16 24 7 68 23 98 36 29
13 57 24 61 25 4 0 43 19 87 42 279 143 480 352 559 581 l27 77 2 1633 2 1632
26 55 c33 69 72 111 145 155 56 34 182 79 254 90 19 3 43 8 52 11 9 3 25 7 35
9 23 5 163 35 183 40 85 19 210 47 230 51 14 3 66 14 115 26 50 11 108 24 130
29 22 5 51 11 65 14 14 3 36 8 50 11 34 7 290 64 315 70 11 3 30 7 43 10 27 5
220 48 342 76 47 10 96 21 110 24 32 7 233 51 285 64 57 13 175 40 205 46 26
5 49 10 90 19 14 4 36 8 50 11 14 3 61 13 105 24 100 23 174 39 200 44 11 3
43 10 70 16 100 24 105 24 106 -2 4 -143 0 -2660 -4 -2665 -4 -3 -12 -1 -19 4
-23 18 -142 60 -218 78 -43 10 -131 19 -205 21 -117 3 -156 1 -290 -21 -154
-25 -398 -119 -529 -203 -305 -198 -478 -442 -485 -682 -7 -231 128 -412 374
-505 28 -10 52 -18 55 -18 3 0 15 -3 26 -8 12 -4 42 -11 65 -14 24 -4 62 -10
84 -14 79 -15 310 -3 415 20 25 6 54 12 64 15 53 10 221 72 302 110 303 143
557 411 610 644 4 19 9 42 12 50 2 8 5 904 6 1990 2 1666 6 2016 21 2070 18
62 66 149 105 189 38 39 126 88 170 94 25 4 25 4 28 130 1 70 -1 127 -5 126
-4 0 -91 -21 -193 -45z"/>
</g>
</svg>
